# Blender v2.77 (sub 0) OBJ File: 'torso.blend'
# www.blender.org
v 0.020136 -2.205620 0.447101
v -0.279664 -2.203356 0.145585
v 0.048124 -2.500000 0.101876
v -0.129261 -2.204904 0.406199
v 0.034418 -2.353031 0.384373
v -0.109267 -2.346098 0.345614
v -0.225330 -2.351069 0.123139
v -0.239306 -2.204072 0.295524
v -0.186742 -2.345513 0.267696
v 0.044691 -2.461086 0.257655
v -0.105012 -2.459955 0.107095
v -0.102034 -2.422172 0.256400
v -0.170988 -0.294380 0.752899
v -0.201876 0.000000 0.501876
v -0.470336 -0.296644 0.450658
v -0.186188 -0.146969 0.737343
v -0.320242 -0.295096 0.711768
v -0.328487 -0.153902 0.696365
v -0.347003 -0.040045 0.494281
v -0.197526 -0.038914 0.645203
v -0.336469 -0.077828 0.631495
v -0.430120 -0.295928 0.600828
v -0.445544 -0.148931 0.475481
v -0.405844 -0.154487 0.618260
v 0.020136 -2.205620 -0.447101
v 0.048124 -2.500000 -0.101876
v -0.279664 -2.203356 -0.145585
v 0.034418 -2.353031 -0.384373
v -0.129261 -2.204904 -0.406199
v -0.109267 -2.346098 -0.345614
v -0.105012 -2.459955 -0.107095
v 0.044691 -2.461086 -0.257655
v -0.102034 -2.422172 -0.256400
v -0.239306 -2.204072 -0.295524
v -0.225330 -2.351069 -0.123139
v -0.186742 -2.345513 -0.267696
v -0.201876 0.000000 -0.501876
v -0.170988 -0.294380 -0.752899
v -0.470336 -0.296644 -0.450658
v -0.197526 -0.038914 -0.645203
v -0.347003 -0.040045 -0.494281
v -0.336469 -0.077828 -0.631495
v -0.320242 -0.295096 -0.711768
v -0.186188 -0.146969 -0.737343
v -0.328487 -0.153902 -0.696365
v -0.445544 -0.148931 -0.475481
v -0.430120 -0.295928 -0.600828
v -0.405844 -0.154487 -0.618260
v -0.020136 -2.205620 0.447101
v -0.048124 -2.500000 0.101876
v 0.279664 -2.203356 0.145584
v -0.034418 -2.353031 0.384373
v 0.129261 -2.204904 0.406199
v 0.109267 -2.346098 0.345614
v 0.105012 -2.459955 0.107095
v -0.044691 -2.461086 0.257655
v 0.102034 -2.422172 0.256400
v 0.239306 -2.204072 0.295524
v 0.225330 -2.351069 0.123139
v 0.186742 -2.345513 0.267696
v 0.201876 0.000000 0.501876
v 0.170988 -0.294380 0.752899
v 0.470336 -0.296644 0.450658
v 0.197526 -0.038914 0.645203
v 0.347003 -0.040045 0.494281
v 0.336469 -0.077828 0.631495
v 0.320242 -0.295096 0.711768
v 0.186188 -0.146969 0.737343
v 0.328487 -0.153902 0.696365
v 0.445544 -0.148931 0.475481
v 0.430120 -0.295928 0.600828
v 0.405844 -0.154487 0.618260
v 0.279664 -2.203356 -0.145585
v -0.048124 -2.500000 -0.101876
v -0.020136 -2.205620 -0.447101
v 0.225330 -2.351069 -0.123139
v 0.239306 -2.204072 -0.295525
v 0.186742 -2.345513 -0.267696
v -0.044691 -2.461086 -0.257655
v 0.105012 -2.459955 -0.107095
v 0.102034 -2.422172 -0.256400
v 0.129261 -2.204904 -0.406199
v -0.034418 -2.353031 -0.384373
v 0.109267 -2.346098 -0.345614
v 0.201876 0.000000 -0.501876
v 0.470336 -0.296644 -0.450658
v 0.170988 -0.294380 -0.752899
v 0.347003 -0.040045 -0.494281
v 0.197526 -0.038914 -0.645203
v 0.336469 -0.077828 -0.631495
v 0.430120 -0.295928 -0.600828
v 0.445544 -0.148931 -0.475481
v 0.405844 -0.154487 -0.618260
v 0.186188 -0.146969 -0.737343
v 0.320242 -0.295096 -0.711768
v 0.328487 -0.153902 -0.696365
vt 0.5677 0.0000
vt 0.4323 0.0000
vt 0.4323 0.0000
vt 0.2007 0.8794
vt 0.5967 0.1043
vt 0.7993 0.8794
vt 0.8333 1.0000
vt 0.1667 1.0000
vt 0.1667 1.0000
vt 0.0000 0.8822
vt 0.2031 0.1178
vt 0.2031 0.1178
vt 1.0000 0.8822
vt 0.7969 0.1178
vt 0.7969 0.1178
vt 0.2705 0.0616
vt 0.2447 0.0588
vt 0.6963 0.1040
vt 0.7295 0.0463
vt 0.7698 0.1037
vt 0.5967 0.1043
vt 0.6778 0.0465
vt 0.5818 0.0443
vt 0.6703 0.0154
vt 0.3289 0.0156
vt 0.4289 0.0160
vt 0.3297 0.0311
vt 0.9897 0.9403
vt 0.9727 0.8800
vt 1.0000 0.8803
vt 0.9285 0.9842
vt 0.9625 0.9374
vt 0.8333 1.0000
vt 0.9194 0.9684
vt 0.8283 0.9837
vt 0.9106 0.9372
vt 0.8990 0.8797
vt 0.8158 0.9395
vt 0.7993 0.8794
vt 0.7295 0.0616
vt 0.7698 0.1180
vt 0.7553 0.0588
vt 0.6703 0.0311
vt 0.5711 0.0160
vt 0.6711 0.0156
vt 0.4182 0.0443
vt 0.3297 0.0154
vt 0.4289 0.0000
vt 0.4033 0.1043
vt 0.3222 0.0465
vt 0.3037 0.1040
vt 0.2705 0.0463
vt 0.1667 1.0000
vt 0.0806 0.9684
vt 0.1717 0.9837
vt 0.0715 0.9842
vt 0.0375 0.9374
vt 0.0273 0.8800
vt 0.0103 0.9403
vt 0.0000 0.8803
vt 0.0894 0.9372
vt 0.1842 0.9395
vt 0.1010 0.8797
vt 0.2007 0.8794
vt 0.2705 0.0616
vt 0.2302 0.1180
vt 0.2447 0.0588
vt 0.3297 0.0311
vt 0.4289 0.0160
vt 0.3289 0.0156
vt 0.4182 0.0443
vt 0.3297 0.0154
vt 0.4289 0.0000
vt 0.4033 0.1043
vt 0.3222 0.0465
vt 0.3037 0.1040
vt 0.2705 0.0463
vt 0.0806 0.9684
vt 0.1717 0.9837
vt 0.0715 0.9842
vt 0.0375 0.9374
vt 0.0273 0.8800
vt 0.0103 0.9403
vt 0.0000 0.8803
vt 0.0894 0.9372
vt 0.1842 0.9395
vt 0.1010 0.8797
vt 0.6778 0.0465
vt 0.6963 0.1040
vt 0.5818 0.0443
vt 0.6703 0.0154
vt 0.6711 0.0156
vt 0.5711 0.0160
vt 0.5677 0.0000
vt 0.7553 0.0588
vt 0.6703 0.0311
vt 0.7295 0.0616
vt 0.7295 0.0463
vt 0.7698 0.1037
vt 0.9194 0.9684
vt 0.9285 0.9842
vt 0.8283 0.9837
vt 0.9106 0.9372
vt 0.8990 0.8797
vt 0.8158 0.9395
vt 0.9727 0.8800
vt 0.9897 0.9403
vt 1.0000 0.8803
vt 0.9625 0.9374
vt 0.0000 0.8822
vt 0.2302 0.1180
vt 0.9727 0.8820
vt 0.2302 0.1037
vt 0.5711 0.0000
vt 0.8333 1.0000
vt 0.9285 0.9844
vt 0.9285 0.9844
vt 0.9897 0.9412
vt 0.9897 0.9412
vt 0.7698 0.1180
vt 1.0000 0.8822
vt 0.9727 0.8820
vt 0.0273 0.8820
vt 0.2302 0.1037
vt 0.5711 0.0000
vt 0.0715 0.9844
vt 0.0715 0.9844
vt 0.0103 0.9412
vt 0.0103 0.9412
vt 0.0273 0.8820
vn 0.0000 1.0000 0.0000
vn 0.9950 -0.0995 0.0000
vn -0.0000 0.1580 -0.9874
vn -0.0000 0.1580 0.9874
vn -0.2567 -0.3994 0.8801
vn -0.6592 -0.3734 0.6527
vn -0.8940 -0.3792 0.2388
vn -0.6427 -0.7396 0.2000
vn -0.2388 -0.9433 0.2304
vn -0.2050 -0.7529 0.6254
vn -0.5320 -0.6651 0.5240
vn -0.2653 0.0741 0.9613
vn -0.2459 0.6139 0.7501
vn -0.2841 0.9231 0.2592
vn -0.7409 0.6307 0.2306
vn -0.9594 0.1179 0.2564
vn -0.7102 0.0352 0.7031
vn -0.6312 0.4639 0.6217
vn -0.2425 -0.4114 -0.8786
vn -0.2050 -0.7529 -0.6254
vn -0.2388 -0.9433 -0.2304
vn -0.6427 -0.7396 -0.2000
vn -0.8949 -0.3676 -0.2530
vn -0.6592 -0.3734 -0.6527
vn -0.5320 -0.6651 -0.5240
vn -0.2691 0.9231 -0.2748
vn -0.2459 0.6139 -0.7501
vn -0.2653 0.0741 -0.9613
vn -0.7102 0.0352 -0.7031
vn -0.9594 0.1179 -0.2564
vn -0.7409 0.6307 -0.2306
vn -0.6312 0.4639 -0.6217
vn 0.2425 -0.4114 0.8786
vn 0.2050 -0.7529 0.6254
vn 0.2388 -0.9433 0.2304
vn 0.6427 -0.7396 0.2000
vn 0.8949 -0.3676 0.2530
vn 0.6592 -0.3734 0.6527
vn 0.5320 -0.6651 0.5240
vn 0.2691 0.9231 0.2748
vn 0.2459 0.6139 0.7501
vn 0.2653 0.0741 0.9613
vn 0.7102 0.0352 0.7031
vn 0.9594 0.1179 0.2564
vn 0.7409 0.6307 0.2306
vn 0.6312 0.4639 0.6217
vn 0.8940 -0.3792 -0.2388
vn 0.6427 -0.7396 -0.2000
vn 0.2388 -0.9433 -0.2304
vn 0.2050 -0.7529 -0.6254
vn 0.2567 -0.3994 -0.8801
vn 0.6592 -0.3734 -0.6527
vn 0.5320 -0.6651 -0.5240
vn 0.2841 0.9231 -0.2592
vn 0.7409 0.6307 -0.2306
vn 0.9594 0.1179 -0.2564
vn 0.7102 0.0352 -0.7031
vn 0.2653 0.0741 -0.9613
vn 0.2459 0.6139 -0.7501
vn 0.6312 0.4639 -0.6217
vn -0.2606 -0.1779 0.9489
vn -0.6981 -0.1807 0.6928
vn -0.9567 -0.1368 0.2569
vn -0.2660 0.9640 0.0000
vn -0.7415 0.6710 0.0000
vn -0.9862 0.1655 0.0000
vn -0.2606 -0.1779 -0.9489
vn -0.6981 -0.1807 -0.6928
vn -0.9567 -0.1368 -0.2569
vn -0.2530 -0.9675 -0.0000
vn -0.6710 -0.7415 0.0000
vn -0.9385 -0.3452 0.0000
vn -0.0000 0.9651 -0.2620
vn 0.0000 0.6488 -0.7609
vn -0.0000 0.1049 -0.9945
vn 0.9567 -0.1368 -0.2569
vn 0.6981 -0.1807 -0.6928
vn 0.2606 -0.1779 -0.9489
vn 0.0000 0.9702 0.2424
vn 0.0000 0.7609 0.6488
vn 0.0000 0.3916 0.9202
vn 0.2660 0.9640 0.0000
vn 0.7415 0.6710 -0.0000
vn 0.9862 0.1655 -0.0000
vn 0.2606 -0.1779 0.9489
vn 0.6981 -0.1807 0.6928
vn 0.9567 -0.1368 0.2569
vn 0.2530 -0.9675 0.0000
vn 0.6710 -0.7415 0.0000
vn 0.9385 -0.3452 -0.0000
vn 0.0000 0.9651 0.2620
vn 0.0000 0.6488 0.7609
vn 0.0000 0.1049 0.9945
vn -0.0000 0.9702 -0.2424
vn 0.0000 0.7609 -0.6489
vn 0.0000 0.3916 -0.9202
vn -0.9950 -0.0995 0.0000
vn 0.0000 -0.1580 0.9874
vn 0.0000 -0.1580 -0.9874
vn -0.2425 -0.4114 0.8786
vn -0.8949 -0.3676 0.2530
vn -0.2507 -0.9373 0.2422
vn -0.2796 0.0880 0.9561
vn -0.2691 0.9231 0.2748
vn -0.9539 0.1304 0.2703
vn -0.2567 -0.3994 -0.8801
vn -0.2507 -0.9373 -0.2422
vn -0.8940 -0.3792 -0.2388
vn -0.2841 0.9231 -0.2592
vn -0.2796 0.0880 -0.9561
vn -0.9539 0.1304 -0.2703
vn 0.2567 -0.3994 0.8801
vn 0.2507 -0.9373 0.2422
vn 0.8940 -0.3792 0.2388
vn 0.2841 0.9231 0.2592
vn 0.2796 0.0880 0.9561
vn 0.9539 0.1304 0.2703
vn 0.8949 -0.3676 -0.2530
vn 0.2507 -0.9373 -0.2422
vn 0.2425 -0.4114 -0.8786
vn 0.2691 0.9231 -0.2748
vn 0.9539 0.1304 -0.2703
vn 0.2796 0.0880 -0.9561
vn -0.0000 0.7609 0.6489
vn -0.0000 0.7609 -0.6488
s off
f 26/1/1 50/2/1 3/3/1
f 63/4/2 73/5/2 86/6/2
f 85/7/1 14/8/1 61/9/1
f 62/10/3 1/11/3 49/12/3
f 38/13/4 75/14/4 25/15/4
f 1/11/5 6/16/5 5/17/5
f 8/18/6 6/19/6 4/20/6
f 2/21/7 9/22/7 8/18/7
f 7/23/8 12/24/8 9/22/8
f 10/25/9 11/26/9 3/3/9
f 5/17/10 12/27/10 10/25/10
f 6/19/11 9/22/11 12/24/11
f 16/28/12 17/29/12 13/30/12
f 20/31/13 18/32/13 16/28/13
f 14/33/14 21/34/14 20/31/14
f 19/35/15 24/36/15 21/34/15
f 22/37/16 23/38/16 15/39/16
f 17/29/17 24/36/17 22/37/17
f 18/32/18 21/34/18 24/36/18
f 25/15/19 30/40/19 29/41/19
f 28/42/20 33/43/20 30/40/20
f 31/44/21 32/45/21 26/1/21
f 35/46/22 33/47/22 31/48/22
f 27/49/23 36/50/23 35/46/23
f 34/51/24 30/52/24 36/50/24
f 30/52/25 33/47/25 36/50/25
f 37/53/26 42/54/26 41/55/26
f 40/56/27 45/57/27 42/54/27
f 43/58/28 44/59/28 38/60/28
f 43/58/29 48/61/29 45/57/29
f 46/62/30 47/63/30 39/64/30
f 41/55/31 48/61/31 46/62/31
f 42/54/32 45/57/32 48/61/32
f 49/12/33 54/65/33 53/66/33
f 52/67/34 57/68/34 54/65/34
f 55/69/35 56/70/35 50/2/35
f 59/71/36 57/72/36 55/73/36
f 51/74/37 60/75/37 59/71/37
f 58/76/38 54/77/38 60/75/38
f 54/77/39 57/72/39 60/75/39
f 61/9/40 66/78/40 65/79/40
f 64/80/41 69/81/41 66/78/41
f 67/82/42 68/83/42 62/84/42
f 67/82/43 72/85/43 69/81/43
f 70/86/44 71/87/44 63/4/44
f 65/79/45 72/85/45 70/86/45
f 66/78/46 69/81/46 72/85/46
f 73/5/47 78/88/47 77/89/47
f 76/90/48 81/91/48 78/88/48
f 79/92/49 80/93/49 74/94/49
f 83/95/50 81/96/50 79/92/50
f 75/14/51 84/97/51 83/95/51
f 77/89/52 84/98/52 82/99/52
f 78/88/53 81/91/53 84/98/53
f 85/7/54 90/100/54 89/101/54
f 88/102/55 93/103/55 90/100/55
f 91/104/56 92/105/56 86/6/56
f 95/106/57 93/103/57 91/104/57
f 94/107/58 95/106/58 87/108/58
f 89/101/59 96/109/59 94/107/59
f 90/100/60 93/103/60 96/109/60
f 13/110/61 4/111/61 1/11/61
f 4/20/62 22/37/62 8/18/62
f 8/18/63 15/39/63 2/21/63
f 37/53/64 19/35/64 14/33/64
f 41/55/65 23/38/65 19/35/65
f 23/38/66 39/64/66 15/39/66
f 38/13/67 29/41/67 43/112/67
f 29/113/68 47/63/68 43/58/68
f 34/51/69 39/64/69 47/63/69
f 3/3/70 31/44/70 26/1/70
f 11/114/71 35/46/71 31/48/71
f 7/23/72 27/49/72 35/46/72
f 37/115/73 89/116/73 40/117/73
f 89/116/74 44/118/74 40/117/74
f 94/119/75 38/13/75 44/118/75
f 86/6/76 77/89/76 91/104/76
f 91/104/77 82/99/77 95/106/77
f 82/120/78 87/121/78 95/122/78
f 26/1/79 79/92/79 74/94/79
f 32/45/80 83/95/80 79/92/80
f 28/42/81 75/14/81 83/95/81
f 61/9/82 88/102/82 85/7/82
f 65/79/83 92/105/83 88/102/83
f 70/86/84 86/6/84 92/105/84
f 62/10/85 53/66/85 67/123/85
f 53/124/86 71/87/86 67/82/86
f 58/76/87 63/4/87 71/87/87
f 50/2/88 80/93/88 55/69/88
f 80/125/89 59/71/89 55/73/89
f 59/71/90 73/5/90 51/74/90
f 14/8/91 64/126/91 61/9/91
f 20/127/92 68/128/92 64/126/92
f 16/129/93 62/10/93 68/128/93
f 3/3/94 56/70/94 10/25/94
f 56/70/95 5/17/95 10/25/95
f 5/17/96 49/12/96 1/11/96
f 39/64/97 2/21/97 15/39/97
f 26/1/1 74/94/1 50/2/1
f 63/4/2 51/74/2 73/5/2
f 85/7/1 37/115/1 14/8/1
f 62/10/98 13/110/98 1/11/98
f 38/13/99 87/121/99 75/14/99
f 1/11/100 4/111/100 6/16/100
f 8/18/6 9/22/6 6/19/6
f 2/21/101 7/23/101 9/22/101
f 7/23/8 11/114/8 12/24/8
f 10/25/102 12/27/102 11/26/102
f 5/17/10 6/16/10 12/27/10
f 16/28/103 18/32/103 17/29/103
f 20/31/13 21/34/13 18/32/13
f 14/33/104 19/35/104 21/34/104
f 19/35/15 23/38/15 24/36/15
f 22/37/105 24/36/105 23/38/105
f 17/29/17 18/32/17 24/36/17
f 25/15/106 28/42/106 30/40/106
f 28/42/20 32/45/20 33/43/20
f 31/44/107 33/43/107 32/45/107
f 35/46/22 36/50/22 33/47/22
f 27/49/108 34/51/108 36/50/108
f 34/51/24 29/113/24 30/52/24
f 37/53/109 40/56/109 42/54/109
f 40/56/27 44/59/27 45/57/27
f 43/58/110 45/57/110 44/59/110
f 43/58/29 47/63/29 48/61/29
f 46/62/111 48/61/111 47/63/111
f 41/55/31 42/54/31 48/61/31
f 49/12/112 52/67/112 54/65/112
f 52/67/34 56/70/34 57/68/34
f 55/69/113 57/68/113 56/70/113
f 59/71/36 60/75/36 57/72/36
f 51/74/114 58/76/114 60/75/114
f 58/76/38 53/124/38 54/77/38
f 61/9/115 64/80/115 66/78/115
f 64/80/41 68/83/41 69/81/41
f 67/82/116 69/81/116 68/83/116
f 67/82/43 71/87/43 72/85/43
f 70/86/117 72/85/117 71/87/117
f 65/79/45 66/78/45 72/85/45
f 73/5/118 76/90/118 78/88/118
f 76/90/48 80/125/48 81/91/48
f 79/92/119 81/96/119 80/93/119
f 83/95/50 84/97/50 81/96/50
f 75/14/120 82/120/120 84/97/120
f 77/89/52 78/88/52 84/98/52
f 85/7/121 88/102/121 90/100/121
f 88/102/55 92/105/55 93/103/55
f 91/104/122 93/103/122 92/105/122
f 95/106/57 96/109/57 93/103/57
f 94/107/123 96/109/123 95/106/123
f 89/101/59 90/100/59 96/109/59
f 13/110/61 17/130/61 4/111/61
f 4/20/62 17/29/62 22/37/62
f 8/18/63 22/37/63 15/39/63
f 37/53/64 41/55/64 19/35/64
f 41/55/65 46/62/65 23/38/65
f 23/38/66 46/62/66 39/64/66
f 38/13/67 25/15/67 29/41/67
f 29/113/68 34/51/68 47/63/68
f 34/51/69 27/49/69 39/64/69
f 3/3/70 11/26/70 31/44/70
f 11/114/71 7/23/71 35/46/71
f 7/23/72 2/21/72 27/49/72
f 37/115/73 85/7/73 89/116/73
f 89/116/74 94/119/74 44/118/74
f 94/119/75 87/121/75 38/13/75
f 86/6/76 73/5/76 77/89/76
f 91/104/77 77/89/77 82/99/77
f 82/120/78 75/14/78 87/121/78
f 26/1/79 32/45/79 79/92/79
f 32/45/124 28/42/124 83/95/124
f 28/42/81 25/15/81 75/14/81
f 61/9/82 65/79/82 88/102/82
f 65/79/83 70/86/83 92/105/83
f 70/86/84 63/4/84 86/6/84
f 62/10/85 49/12/85 53/66/85
f 53/124/86 58/76/86 71/87/86
f 58/76/87 51/74/87 63/4/87
f 50/2/88 74/94/88 80/93/88
f 80/125/89 76/90/89 59/71/89
f 59/71/90 76/90/90 73/5/90
f 14/8/91 20/127/91 64/126/91
f 20/127/92 16/129/92 68/128/92
f 16/129/93 13/110/93 62/10/93
f 3/3/94 50/2/94 56/70/94
f 56/70/125 52/67/125 5/17/125
f 5/17/96 52/67/96 49/12/96
f 39/64/97 27/49/97 2/21/97
