# Blender v2.77 (sub 0) OBJ File: 'coin.blend'
# www.blender.org
v -0.200000 -0.000000 -0.800000
v 0.200000 -0.000000 -0.800000
v -0.200000 -0.156072 -0.784628
v 0.200000 -0.156072 -0.784628
v -0.200000 -0.306147 -0.739104
v 0.200000 -0.306147 -0.739104
v -0.200000 -0.444456 -0.665176
v 0.200000 -0.444456 -0.665176
v -0.200000 -0.565685 -0.565686
v 0.200000 -0.565685 -0.565686
v -0.200000 -0.665176 -0.444456
v 0.200000 -0.665176 -0.444456
v -0.200000 -0.739104 -0.306147
v 0.200000 -0.739104 -0.306147
v -0.200000 -0.784628 -0.156072
v 0.200000 -0.784628 -0.156072
v -0.200000 -0.800000 -0.000000
v 0.200000 -0.800000 -0.000000
v -0.200000 -0.784628 0.156072
v 0.200000 -0.784628 0.156072
v -0.200000 -0.739104 0.306147
v 0.200000 -0.739104 0.306147
v -0.200000 -0.665176 0.444456
v 0.200000 -0.665176 0.444456
v -0.200000 -0.565685 0.565685
v 0.200000 -0.565685 0.565685
v -0.200000 -0.444456 0.665176
v 0.200000 -0.444456 0.665176
v -0.200000 -0.306147 0.739104
v 0.200000 -0.306147 0.739104
v -0.200000 -0.156072 0.784628
v 0.200000 -0.156072 0.784628
v -0.200000 0.000000 0.800000
v 0.200000 0.000000 0.800000
v -0.200000 0.156073 0.784628
v 0.200000 0.156073 0.784628
v -0.200000 0.306147 0.739103
v 0.200000 0.306147 0.739103
v -0.200000 0.444457 0.665175
v 0.200000 0.444457 0.665175
v -0.200000 0.565686 0.565685
v 0.200000 0.565686 0.565685
v -0.200000 0.665176 0.444456
v 0.200000 0.665176 0.444456
v -0.200000 0.739104 0.306146
v 0.200000 0.739104 0.306146
v -0.200000 0.784628 0.156072
v 0.200000 0.784628 0.156072
v -0.200000 0.800000 -0.000001
v 0.200000 0.800000 -0.000001
v -0.200000 0.784628 -0.156073
v 0.200000 0.784628 -0.156073
v -0.200000 0.739103 -0.306148
v 0.200000 0.739103 -0.306148
v -0.200000 0.665175 -0.444457
v 0.200000 0.665175 -0.444457
v -0.200000 0.565685 -0.565686
v 0.200000 0.565685 -0.565686
v -0.200000 0.444455 -0.665176
v 0.200000 0.444455 -0.665176
v -0.200000 0.306146 -0.739104
v 0.200000 0.306146 -0.739104
v -0.200000 0.156071 -0.784629
v 0.200000 0.156071 -0.784629
v -0.250000 -0.000000 -1.000000
v -0.250000 -0.195090 -0.980785
v 0.250000 -0.195090 -0.980785
v 0.250000 0.000000 -1.000000
v -0.250000 -0.382683 -0.923880
v 0.250000 -0.382683 -0.923880
v -0.250000 -0.555570 -0.831470
v 0.250000 -0.555570 -0.831470
v -0.250000 -0.707107 -0.707107
v 0.250000 -0.707107 -0.707107
v -0.250000 -0.831470 -0.555570
v 0.250000 -0.831470 -0.555570
v -0.250000 -0.923880 -0.382683
v 0.250000 -0.923880 -0.382683
v -0.250000 -0.980785 -0.195090
v 0.250000 -0.980785 -0.195090
v -0.250000 -1.000000 -0.000000
v 0.250000 -1.000000 -0.000000
v -0.250000 -0.980785 0.195090
v 0.250000 -0.980785 0.195090
v -0.250000 -0.923880 0.382683
v 0.250000 -0.923880 0.382683
v -0.250000 -0.831470 0.555570
v 0.250000 -0.831470 0.555570
v -0.250000 -0.707107 0.707107
v 0.250000 -0.707107 0.707107
v -0.250000 -0.555570 0.831470
v 0.250000 -0.555570 0.831470
v -0.250000 -0.382683 0.923880
v 0.250000 -0.382683 0.923880
v -0.250000 -0.195090 0.980785
v 0.250000 -0.195090 0.980785
v -0.250000 0.000000 1.000000
v 0.250000 0.000000 1.000000
v -0.250000 0.195091 0.980785
v 0.250000 0.195091 0.980785
v -0.250000 0.382684 0.923879
v 0.250000 0.382684 0.923879
v -0.250000 0.555571 0.831469
v 0.250000 0.555571 0.831469
v -0.250000 0.707107 0.707106
v 0.250000 0.707107 0.707106
v -0.250000 0.831470 0.555570
v 0.250000 0.831470 0.555570
v -0.250000 0.923880 0.382683
v 0.250000 0.923880 0.382683
v -0.250000 0.980785 0.195089
v 0.250000 0.980785 0.195089
v -0.250000 1.000000 -0.000001
v 0.250000 1.000000 -0.000001
v -0.250000 0.980785 -0.195091
v 0.250000 0.980785 -0.195091
v -0.250000 0.923879 -0.382684
v 0.250000 0.923879 -0.382684
v -0.250000 0.831469 -0.555571
v 0.250000 0.831469 -0.555571
v -0.250000 0.707106 -0.707108
v 0.250000 0.707106 -0.707108
v -0.250000 0.555569 -0.831470
v 0.250000 0.555569 -0.831470
v -0.250000 0.382682 -0.923880
v 0.250000 0.382682 -0.923880
v -0.250000 0.195089 -0.980786
v 0.250000 0.195089 -0.980786
v -0.250000 -0.000000 -0.800000
v -0.250000 -0.156072 -0.784628
v 0.250000 -0.156072 -0.784628
v 0.250000 0.000000 -0.800000
v -0.250000 -0.306147 -0.739104
v 0.250000 -0.306147 -0.739104
v -0.250000 -0.444456 -0.665176
v 0.250000 -0.444456 -0.665176
v -0.250000 -0.565685 -0.565686
v 0.250000 -0.565685 -0.565686
v -0.250000 -0.665176 -0.444456
v 0.250000 -0.665176 -0.444456
v -0.250000 -0.739104 -0.306147
v 0.250000 -0.739104 -0.306147
v -0.250000 -0.784628 -0.156072
v 0.250000 -0.784628 -0.156072
v -0.250000 -0.800000 -0.000000
v 0.250000 -0.800000 -0.000000
v -0.250000 -0.784628 0.156072
v 0.250000 -0.784628 0.156072
v -0.250000 -0.739104 0.306147
v 0.250000 -0.739104 0.306147
v -0.250000 -0.665176 0.444456
v 0.250000 -0.665176 0.444456
v -0.250000 -0.565685 0.565685
v 0.250000 -0.565685 0.565685
v -0.250000 -0.444456 0.665176
v 0.250000 -0.444456 0.665176
v -0.250000 -0.306147 0.739104
v 0.250000 -0.306147 0.739104
v -0.250000 -0.156072 0.784628
v 0.250000 -0.156072 0.784628
v -0.250000 0.000000 0.800000
v 0.250000 0.000000 0.800000
v -0.250000 0.156073 0.784628
v 0.250000 0.156073 0.784628
v -0.250000 0.306147 0.739103
v 0.250000 0.306147 0.739103
v -0.250000 0.444457 0.665175
v 0.250000 0.444457 0.665175
v -0.250000 0.565686 0.565685
v 0.250000 0.565686 0.565685
v -0.250000 0.665176 0.444456
v 0.250000 0.665176 0.444456
v -0.250000 0.739104 0.306146
v 0.250000 0.739104 0.306146
v -0.250000 0.784628 0.156072
v 0.250000 0.784628 0.156072
v -0.250000 0.800000 -0.000001
v 0.250000 0.800000 -0.000001
v -0.250000 0.784628 -0.156073
v 0.250000 0.784628 -0.156073
v -0.250000 0.739103 -0.306148
v 0.250000 0.739103 -0.306148
v -0.250000 0.665175 -0.444457
v 0.250000 0.665175 -0.444457
v -0.250000 0.565685 -0.565686
v 0.250000 0.565685 -0.565686
v -0.250000 0.444455 -0.665176
v 0.250000 0.444455 -0.665176
v -0.250000 0.306146 -0.739104
v 0.250000 0.306146 -0.739104
v -0.250000 0.156071 -0.784629
v 0.250000 0.156071 -0.784629
vt 0.4740 0.4418
vt 0.4442 0.0270
vt 0.4740 0.0270
vt 0.4442 0.4418
vt 0.4143 0.0270
vt 0.4143 0.4418
vt 0.3845 0.0270
vt 0.3845 0.4418
vt 0.3546 0.0270
vt 0.3546 0.4418
vt 0.3247 0.0270
vt 0.3247 0.4418
vt 0.2949 0.0270
vt 0.2949 0.4418
vt 0.2650 0.0270
vt 0.2650 0.4418
vt 0.2351 0.0270
vt 0.2351 0.4418
vt 0.2053 0.0270
vt 0.2053 0.4418
vt 0.1754 0.0270
vt 0.1754 0.4418
vt 0.1456 0.0270
vt 0.1456 0.4418
vt 0.1157 0.0270
vt 0.1157 0.4418
vt 0.0858 0.0270
vt 0.0858 0.4418
vt 0.0560 0.0270
vt 0.0560 0.4418
vt 0.0261 0.0270
vt 0.9817 0.4418
vt 0.9518 0.0270
vt 0.9817 0.0270
vt 0.9518 0.4418
vt 0.9220 0.0270
vt 0.9220 0.4418
vt 0.8921 0.0270
vt 0.8921 0.4418
vt 0.8622 0.0270
vt 0.8324 0.4418
vt 0.8324 0.0270
vt 0.8025 0.0270
vt 0.8025 0.4418
vt 0.7727 0.0270
vt 0.7727 0.4418
vt 0.7428 0.0270
vt 0.7428 0.4418
vt 0.7129 0.0270
vt 0.7129 0.4418
vt 0.6831 0.0270
vt 0.6831 0.4418
vt 0.6532 0.0270
vt 0.6532 0.4418
vt 0.6234 0.0270
vt 0.6234 0.4418
vt 0.5935 0.0270
vt 0.5935 0.4418
vt 0.5636 0.0270
vt 0.5636 0.4418
vt 0.5338 0.0270
vt 0.0190 0.8387
vt 0.1613 0.5150
vt 0.3426 0.9810
vt 0.5338 0.4418
vt 0.5039 0.0270
vt 0.5039 0.4418
vt 0.4971 0.6993
vt 0.3007 0.9932
vt 0.0068 0.7968
vt 0.0020 0.7480
vt 0.0068 0.6993
vt 0.0068 0.6993
vt 0.5019 0.7535
vt 0.4982 0.7046
vt 0.5019 0.7535
vt 0.0210 0.6524
vt 0.0210 0.6524
vt 0.4850 0.6574
vt 0.4982 0.7046
vt 0.0441 0.6092
vt 0.0441 0.6092
vt 0.4628 0.6137
vt 0.4850 0.6574
vt 0.0752 0.5713
vt 0.0752 0.5713
vt 0.4325 0.5752
vt 0.4628 0.6137
vt 0.1131 0.5402
vt 0.1131 0.5402
vt 0.3953 0.5433
vt 0.4325 0.5752
vt 0.1563 0.5171
vt 0.1563 0.5171
vt 0.3526 0.5192
vt 0.3953 0.5433
vt 0.2032 0.5029
vt 0.2032 0.5029
vt 0.3061 0.5040
vt 0.3526 0.5192
vt 0.2520 0.4980
vt 0.2520 0.4980
vt 0.2574 0.4981
vt 0.3061 0.5040
vt 0.3007 0.5029
vt 0.3007 0.5029
vt 0.2085 0.5018
vt 0.2574 0.4981
vt 0.3476 0.5171
vt 0.3476 0.5171
vt 0.1613 0.5150
vt 0.2085 0.5018
vt 0.3908 0.5402
vt 0.3908 0.5402
vt 0.1176 0.5372
vt 0.1613 0.5150
vt 0.4287 0.5713
vt 0.4287 0.5713
vt 0.0791 0.5675
vt 0.1176 0.5372
vt 0.4598 0.6092
vt 0.4598 0.6092
vt 0.0472 0.6047
vt 0.0791 0.5675
vt 0.4829 0.6524
vt 0.4829 0.6524
vt 0.0231 0.6474
vt 0.0472 0.6047
vt 0.4971 0.6993
vt 0.4971 0.6993
vt 0.0079 0.6939
vt 0.0231 0.6474
vt 0.5020 0.7480
vt 0.5020 0.7480
vt 0.0020 0.7426
vt 0.0079 0.6939
vt 0.4971 0.7968
vt 0.4971 0.7968
vt 0.0058 0.7915
vt 0.0020 0.7426
vt 0.4829 0.8437
vt 0.4829 0.8437
vt 0.0058 0.7915
vt 0.0190 0.8387
vt 0.4598 0.8869
vt 0.4598 0.8869
vt 0.0411 0.8824
vt 0.0190 0.8387
vt 0.4287 0.9248
vt 0.4287 0.9248
vt 0.0714 0.9209
vt 0.0411 0.8824
vt 0.3908 0.9559
vt 0.3908 0.9559
vt 0.0714 0.9209
vt 0.1086 0.9528
vt 0.3476 0.9790
vt 0.3476 0.9790
vt 0.1513 0.9769
vt 0.1086 0.9528
vt 0.3007 0.9932
vt 0.3007 0.9932
vt 0.1978 0.9921
vt 0.1513 0.9769
vt 0.2520 0.9980
vt 0.2520 0.9980
vt 0.1978 0.9921
vt 0.2465 0.9980
vt 0.2032 0.9932
vt 0.2032 0.9932
vt 0.2465 0.9980
vt 0.2954 0.9942
vt 0.1563 0.9790
vt 0.1563 0.9790
vt 0.2954 0.9942
vt 0.3426 0.9810
vt 0.1131 0.9559
vt 0.1131 0.9559
vt 0.3426 0.9810
vt 0.3863 0.9589
vt 0.0752 0.9248
vt 0.0752 0.9248
vt 0.3863 0.9589
vt 0.4248 0.9286
vt 0.0441 0.8869
vt 0.0441 0.8869
vt 0.4248 0.9286
vt 0.4567 0.8914
vt 0.0210 0.8437
vt 0.0210 0.8437
vt 0.4808 0.8487
vt 0.4567 0.8914
vt 0.0068 0.7968
vt 0.0068 0.7968
vt 0.4960 0.8022
vt 0.4808 0.8487
vt 0.0020 0.7480
vt 0.4960 0.8022
vt 0.0020 0.7480
vt 0.0068 0.6993
vt 0.4982 0.7046
vt 0.5019 0.7535
vt 0.0210 0.6524
vt 0.4850 0.6574
vt 0.0441 0.6092
vt 0.4628 0.6137
vt 0.0752 0.5713
vt 0.4325 0.5752
vt 0.1131 0.5402
vt 0.3953 0.5433
vt 0.1563 0.5171
vt 0.3526 0.5192
vt 0.2032 0.5029
vt 0.3061 0.5040
vt 0.2520 0.4980
vt 0.2574 0.4981
vt 0.3007 0.5029
vt 0.3476 0.5171
vt 0.2085 0.5018
vt 0.3908 0.5402
vt 0.4287 0.5713
vt 0.0791 0.5675
vt 0.1176 0.5372
vt 0.4598 0.6092
vt 0.4829 0.6524
vt 0.0231 0.6474
vt 0.0472 0.6047
vt 0.5020 0.7480
vt 0.0020 0.7426
vt 0.0079 0.6939
vt 0.4971 0.7968
vt 0.0058 0.7915
vt 0.4829 0.8437
vt 0.4598 0.8869
vt 0.0411 0.8824
vt 0.4287 0.9248
vt 0.3908 0.9559
vt 0.1086 0.9528
vt 0.0714 0.9209
vt 0.3476 0.9790
vt 0.1978 0.9921
vt 0.1513 0.9769
vt 0.2520 0.9980
vt 0.2465 0.9980
vt 0.2032 0.9932
vt 0.2954 0.9942
vt 0.1563 0.9790
vt 0.1131 0.9559
vt 0.3863 0.9589
vt 0.0752 0.9248
vt 0.4248 0.9286
vt 0.0441 0.8869
vt 0.4567 0.8914
vt 0.0210 0.8437
vt 0.4808 0.8487
vt 0.4960 0.8022
vt 0.0261 0.4418
vt 0.8622 0.4418
vn 0.0000 -0.0980 -0.9952
vn 0.0000 -0.2903 -0.9569
vn 0.0000 -0.4714 -0.8819
vn 0.0000 -0.6344 -0.7730
vn 0.0000 -0.7730 -0.6344
vn 0.0000 -0.8819 -0.4714
vn 0.0000 -0.9569 -0.2903
vn 0.0000 -0.9952 -0.0980
vn 0.0000 -0.9952 0.0980
vn 0.0000 -0.9569 0.2903
vn 0.0000 -0.8819 0.4714
vn 0.0000 -0.7730 0.6344
vn 0.0000 -0.6344 0.7730
vn 0.0000 -0.4714 0.8819
vn 0.0000 -0.2903 0.9569
vn 0.0000 -0.0980 0.9952
vn -0.0000 0.0980 0.9952
vn 0.0000 0.2903 0.9569
vn -0.0000 0.4714 0.8819
vn 0.0000 0.6344 0.7730
vn 0.0000 0.7730 0.6344
vn 0.0000 0.8819 0.4714
vn 0.0000 0.9569 0.2903
vn 0.0000 0.9952 0.0980
vn 0.0000 0.9952 -0.0980
vn 0.0000 0.9569 -0.2903
vn 0.0000 0.8819 -0.4714
vn 0.0000 0.7730 -0.6344
vn 0.0000 0.6344 -0.7730
vn 0.0000 0.4714 -0.8819
vn 1.0000 0.0000 -0.0000
vn 0.0000 0.2903 -0.9569
vn 0.0000 0.0980 -0.9952
vn -1.0000 -0.0000 0.0000
s off
f 68/1/1 66/2/1 65/3/1
f 67/4/2 69/5/2 66/2/2
f 70/6/3 71/7/3 69/5/3
f 72/8/4 73/9/4 71/7/4
f 74/10/5 75/11/5 73/9/5
f 76/12/6 77/13/6 75/11/6
f 78/14/7 79/15/7 77/13/7
f 80/16/8 81/17/8 79/15/8
f 82/18/9 83/19/9 81/17/9
f 84/20/10 85/21/10 83/19/10
f 86/22/11 87/23/11 85/21/11
f 88/24/12 89/25/12 87/23/12
f 90/26/13 91/27/13 89/25/13
f 92/28/14 93/29/14 91/27/14
f 94/30/15 95/31/15 93/29/15
f 96/32/16 97/33/16 95/34/16
f 98/35/17 99/36/17 97/33/17
f 100/37/18 101/38/18 99/36/18
f 102/39/19 103/40/19 101/38/19
f 103/40/20 106/41/20 105/42/20
f 106/41/21 107/43/21 105/42/21
f 108/44/22 109/45/22 107/43/22
f 110/46/23 111/47/23 109/45/23
f 112/48/24 113/49/24 111/47/24
f 114/50/25 115/51/25 113/49/25
f 116/52/26 117/53/26 115/51/26
f 118/54/27 119/55/27 117/53/27
f 120/56/28 121/57/28 119/55/28
f 122/58/29 123/59/29 121/57/29
f 124/60/30 125/61/30 123/59/30
f 38/62/31 22/63/31 54/64/31
f 126/65/32 127/66/32 125/61/32
f 128/67/33 65/3/33 127/66/33
f 31/68/34 47/69/34 63/70/34
f 129/71/34 66/72/34 130/73/34
f 132/74/31 67/75/31 68/76/31
f 133/77/34 66/72/34 69/78/34
f 134/79/31 67/75/31 131/80/31
f 135/81/34 69/78/34 71/82/34
f 136/83/31 70/84/31 134/79/31
f 135/81/34 73/85/34 137/86/34
f 138/87/31 72/88/31 136/83/31
f 139/89/34 73/85/34 75/90/34
f 140/91/31 74/92/31 138/87/31
f 141/93/34 75/90/34 77/94/34
f 140/91/31 78/95/31 76/96/31
f 143/97/34 77/94/34 79/98/34
f 144/99/31 78/95/31 142/100/31
f 145/101/34 79/98/34 81/102/34
f 146/103/31 80/104/31 144/99/31
f 147/105/34 81/102/34 83/106/34
f 148/107/31 82/108/31 146/103/31
f 147/105/34 85/109/34 149/110/34
f 148/107/31 86/111/31 84/112/31
f 151/113/34 85/109/34 87/114/34
f 152/115/31 86/111/31 150/116/31
f 153/117/34 87/114/34 89/118/34
f 154/119/31 88/120/31 152/115/31
f 155/121/34 89/118/34 91/122/34
f 156/123/31 90/124/31 154/119/31
f 157/125/34 91/122/34 93/126/34
f 158/127/31 92/128/31 156/123/31
f 157/125/34 95/129/34 159/130/34
f 160/131/31 94/132/31 158/127/31
f 161/133/34 95/129/34 97/134/34
f 162/135/31 96/136/31 160/131/31
f 161/133/34 99/137/34 163/138/34
f 162/135/31 100/139/31 98/140/31
f 163/138/34 101/141/34 165/142/34
f 164/143/31 102/144/31 100/139/31
f 167/145/34 101/141/34 103/146/34
f 168/147/31 102/144/31 166/148/31
f 167/145/34 105/149/34 169/150/34
f 168/147/31 106/151/31 104/152/31
f 169/150/34 107/153/34 171/154/34
f 170/155/31 108/156/31 106/151/31
f 171/154/34 109/157/34 173/158/34
f 174/159/31 108/156/31 172/160/31
f 173/158/34 111/161/34 175/162/34
f 174/159/31 112/163/31 110/164/31
f 175/162/34 113/165/34 177/166/34
f 176/167/31 114/168/31 112/163/31
f 177/166/34 115/169/34 179/170/34
f 178/171/31 116/172/31 114/168/31
f 179/170/34 117/173/34 181/174/34
f 180/175/31 118/176/31 116/172/31
f 181/174/34 119/177/34 183/178/34
f 182/179/31 120/180/31 118/176/31
f 183/178/34 121/181/34 185/182/34
f 184/183/31 122/184/31 120/180/31
f 185/182/34 123/185/34 187/186/34
f 186/187/31 124/188/31 122/184/31
f 187/186/34 125/189/34 189/190/34
f 190/191/31 124/188/31 188/192/31
f 189/190/34 127/193/34 191/194/34
f 190/191/31 128/195/31 126/196/31
f 191/194/34 65/197/34 129/71/34
f 132/74/31 128/195/31 192/198/31
f 1/199/17 130/73/17 3/200/17
f 4/201/17 132/74/17 2/202/17
f 3/200/18 133/77/18 5/203/18
f 6/204/18 131/80/18 4/201/18
f 5/203/19 135/81/19 7/205/19
f 8/206/19 134/79/19 6/204/19
f 7/205/20 137/86/20 9/207/20
f 10/208/20 136/83/20 8/206/20
f 9/207/21 139/89/21 11/209/21
f 12/210/21 138/87/21 10/208/21
f 11/209/22 141/93/22 13/211/22
f 14/212/22 140/91/22 12/210/22
f 13/211/23 143/97/23 15/213/23
f 16/214/23 142/100/23 14/212/23
f 15/213/24 145/101/24 17/215/24
f 18/216/24 144/99/24 16/214/24
f 17/215/25 147/105/25 19/217/25
f 18/216/25 148/107/25 146/103/25
f 19/217/26 149/110/26 21/218/26
f 22/63/26 148/107/26 20/219/26
f 21/218/27 151/113/27 23/220/27
f 22/63/27 152/115/27 150/116/27
f 23/220/28 153/117/28 25/221/28
f 26/222/28 152/115/28 24/223/28
f 27/224/29 153/117/29 155/121/29
f 26/222/29 156/123/29 154/119/29
f 29/225/30 155/121/30 157/125/30
f 30/226/30 156/123/30 28/227/30
f 31/68/32 157/125/32 159/130/32
f 30/226/32 160/131/32 158/127/32
f 31/68/33 161/133/33 33/228/33
f 34/229/33 160/131/33 32/230/33
f 33/228/1 163/138/1 35/231/1
f 36/232/1 162/135/1 34/229/1
f 37/233/2 163/138/2 165/142/2
f 36/232/2 166/148/2 164/143/2
f 37/233/3 167/145/3 39/234/3
f 40/235/3 166/148/3 38/62/3
f 39/234/4 169/150/4 41/236/4
f 40/235/4 170/155/4 168/147/4
f 41/236/5 171/154/5 43/237/5
f 44/238/5 170/155/5 42/239/5
f 45/240/6 171/154/6 173/158/6
f 44/238/6 174/159/6 172/160/6
f 45/240/7 175/162/7 47/69/7
f 48/241/7 174/159/7 46/242/7
f 47/69/8 177/166/8 49/243/8
f 50/244/8 176/167/8 48/241/8
f 51/245/9 177/166/9 179/170/9
f 52/246/9 178/171/9 50/244/9
f 51/245/10 181/174/10 53/247/10
f 54/64/10 180/175/10 52/246/10
f 53/247/11 183/178/11 55/248/11
f 56/249/11 182/179/11 54/64/11
f 55/248/12 185/182/12 57/250/12
f 58/251/12 184/183/12 56/249/12
f 57/250/13 187/186/13 59/252/13
f 60/253/13 186/187/13 58/251/13
f 59/252/14 189/190/14 61/254/14
f 62/255/14 188/192/14 60/253/14
f 61/254/15 191/194/15 63/70/15
f 64/256/15 190/191/15 62/255/15
f 63/70/16 129/71/16 1/199/16
f 2/202/16 192/198/16 64/256/16
f 68/1/1 67/4/1 66/2/1
f 67/4/2 70/6/2 69/5/2
f 70/6/3 72/8/3 71/7/3
f 72/8/4 74/10/4 73/9/4
f 74/10/5 76/12/5 75/11/5
f 76/12/6 78/14/6 77/13/6
f 78/14/7 80/16/7 79/15/7
f 80/16/8 82/18/8 81/17/8
f 82/18/9 84/20/9 83/19/9
f 84/20/10 86/22/10 85/21/10
f 86/22/11 88/24/11 87/23/11
f 88/24/12 90/26/12 89/25/12
f 90/26/13 92/28/13 91/27/13
f 92/28/14 94/30/14 93/29/14
f 94/30/15 96/257/15 95/31/15
f 96/32/16 98/35/16 97/33/16
f 98/35/17 100/37/17 99/36/17
f 100/37/18 102/39/18 101/38/18
f 102/39/19 104/258/19 103/40/19
f 103/40/20 104/258/20 106/41/20
f 106/41/21 108/44/21 107/43/21
f 108/44/22 110/46/22 109/45/22
f 110/46/23 112/48/23 111/47/23
f 112/48/24 114/50/24 113/49/24
f 114/50/25 116/52/25 115/51/25
f 116/52/26 118/54/26 117/53/26
f 118/54/27 120/56/27 119/55/27
f 120/56/28 122/58/28 121/57/28
f 122/58/29 124/60/29 123/59/29
f 124/60/30 126/65/30 125/61/30
f 6/204/31 4/201/31 2/202/31
f 2/202/31 64/256/31 6/204/31
f 62/255/31 60/253/31 58/251/31
f 58/251/31 56/249/31 54/64/31
f 54/64/31 52/246/31 50/244/31
f 50/244/31 48/241/31 46/242/31
f 46/242/31 44/238/31 38/62/31
f 42/239/31 40/235/31 38/62/31
f 38/62/31 36/232/31 30/226/31
f 34/229/31 32/230/31 30/226/31
f 30/226/31 28/227/31 22/63/31
f 26/222/31 24/223/31 22/63/31
f 22/63/31 20/219/31 18/216/31
f 18/216/31 16/214/31 22/63/31
f 14/212/31 12/210/31 10/208/31
f 10/208/31 8/206/31 14/212/31
f 6/204/31 64/256/31 62/255/31
f 62/255/31 58/251/31 6/204/31
f 54/64/31 50/244/31 38/62/31
f 44/238/31 42/239/31 38/62/31
f 36/232/31 34/229/31 30/226/31
f 28/227/31 26/222/31 22/63/31
f 22/63/31 16/214/31 14/212/31
f 14/212/31 8/206/31 6/204/31
f 6/204/31 58/251/31 54/64/31
f 50/244/31 46/242/31 38/62/31
f 38/62/31 30/226/31 22/63/31
f 22/63/31 14/212/31 6/204/31
f 6/204/31 54/64/31 22/63/31
f 126/65/32 128/67/32 127/66/32
f 128/67/33 68/1/33 65/3/33
f 63/70/34 1/199/34 3/200/34
f 3/200/34 5/203/34 7/205/34
f 7/205/34 9/207/34 11/209/34
f 11/209/34 13/211/34 7/205/34
f 15/213/34 17/215/34 19/217/34
f 19/217/34 21/218/34 15/213/34
f 23/220/34 25/221/34 27/224/34
f 27/224/34 29/225/34 31/68/34
f 31/68/34 33/228/34 35/231/34
f 35/231/34 37/233/34 39/234/34
f 39/234/34 41/236/34 43/237/34
f 43/237/34 45/240/34 47/69/34
f 47/69/34 49/243/34 51/245/34
f 51/245/34 53/247/34 47/69/34
f 55/248/34 57/250/34 63/70/34
f 59/252/34 61/254/34 63/70/34
f 63/70/34 3/200/34 7/205/34
f 7/205/34 13/211/34 15/213/34
f 15/213/34 21/218/34 23/220/34
f 23/220/34 27/224/34 31/68/34
f 31/68/34 35/231/34 47/69/34
f 39/234/34 43/237/34 47/69/34
f 47/69/34 53/247/34 55/248/34
f 57/250/34 59/252/34 63/70/34
f 63/70/34 7/205/34 15/213/34
f 15/213/34 23/220/34 63/70/34
f 35/231/34 39/234/34 47/69/34
f 47/69/34 55/248/34 63/70/34
f 63/70/34 23/220/34 31/68/34
f 129/71/34 65/197/34 66/72/34
f 132/74/31 131/80/31 67/75/31
f 133/77/34 130/73/34 66/72/34
f 134/79/31 70/84/31 67/75/31
f 135/81/34 133/77/34 69/78/34
f 136/83/31 72/88/31 70/84/31
f 135/81/34 71/82/34 73/85/34
f 138/87/31 74/92/31 72/88/31
f 139/89/34 137/86/34 73/85/34
f 140/91/31 76/96/31 74/92/31
f 141/93/34 139/89/34 75/90/34
f 140/91/31 142/100/31 78/95/31
f 143/97/34 141/93/34 77/94/34
f 144/99/31 80/104/31 78/95/31
f 145/101/34 143/97/34 79/98/34
f 146/103/31 82/108/31 80/104/31
f 147/105/34 145/101/34 81/102/34
f 148/107/31 84/112/31 82/108/31
f 147/105/34 83/106/34 85/109/34
f 148/107/31 150/116/31 86/111/31
f 151/113/34 149/110/34 85/109/34
f 152/115/31 88/120/31 86/111/31
f 153/117/34 151/113/34 87/114/34
f 154/119/31 90/124/31 88/120/31
f 155/121/34 153/117/34 89/118/34
f 156/123/31 92/128/31 90/124/31
f 157/125/34 155/121/34 91/122/34
f 158/127/31 94/132/31 92/128/31
f 157/125/34 93/126/34 95/129/34
f 160/131/31 96/136/31 94/132/31
f 161/133/34 159/130/34 95/129/34
f 162/135/31 98/140/31 96/136/31
f 161/133/34 97/134/34 99/137/34
f 162/135/31 164/143/31 100/139/31
f 163/138/34 99/137/34 101/141/34
f 164/143/31 166/148/31 102/144/31
f 167/145/34 165/142/34 101/141/34
f 168/147/31 104/152/31 102/144/31
f 167/145/34 103/146/34 105/149/34
f 168/147/31 170/155/31 106/151/31
f 169/150/34 105/149/34 107/153/34
f 170/155/31 172/160/31 108/156/31
f 171/154/34 107/153/34 109/157/34
f 174/159/31 110/164/31 108/156/31
f 173/158/34 109/157/34 111/161/34
f 174/159/31 176/167/31 112/163/31
f 175/162/34 111/161/34 113/165/34
f 176/167/31 178/171/31 114/168/31
f 177/166/34 113/165/34 115/169/34
f 178/171/31 180/175/31 116/172/31
f 179/170/34 115/169/34 117/173/34
f 180/175/31 182/179/31 118/176/31
f 181/174/34 117/173/34 119/177/34
f 182/179/31 184/183/31 120/180/31
f 183/178/34 119/177/34 121/181/34
f 184/183/31 186/187/31 122/184/31
f 185/182/34 121/181/34 123/185/34
f 186/187/31 188/192/31 124/188/31
f 187/186/34 123/185/34 125/189/34
f 190/191/31 126/196/31 124/188/31
f 189/190/34 125/189/34 127/193/34
f 190/191/31 192/198/31 128/195/31
f 191/194/34 127/193/34 65/197/34
f 132/74/31 68/76/31 128/195/31
f 1/199/17 129/71/17 130/73/17
f 4/201/17 131/80/17 132/74/17
f 3/200/18 130/73/18 133/77/18
f 6/204/18 134/79/18 131/80/18
f 5/203/19 133/77/19 135/81/19
f 8/206/19 136/83/19 134/79/19
f 7/205/20 135/81/20 137/86/20
f 10/208/20 138/87/20 136/83/20
f 9/207/21 137/86/21 139/89/21
f 12/210/21 140/91/21 138/87/21
f 11/209/22 139/89/22 141/93/22
f 14/212/22 142/100/22 140/91/22
f 13/211/23 141/93/23 143/97/23
f 16/214/23 144/99/23 142/100/23
f 15/213/24 143/97/24 145/101/24
f 18/216/24 146/103/24 144/99/24
f 17/215/25 145/101/25 147/105/25
f 18/216/25 20/219/25 148/107/25
f 19/217/26 147/105/26 149/110/26
f 22/63/26 150/116/26 148/107/26
f 21/218/27 149/110/27 151/113/27
f 22/63/27 24/223/27 152/115/27
f 23/220/28 151/113/28 153/117/28
f 26/222/28 154/119/28 152/115/28
f 27/224/29 25/221/29 153/117/29
f 26/222/29 28/227/29 156/123/29
f 29/225/30 27/224/30 155/121/30
f 30/226/30 158/127/30 156/123/30
f 31/68/32 29/225/32 157/125/32
f 30/226/32 32/230/32 160/131/32
f 31/68/33 159/130/33 161/133/33
f 34/229/33 162/135/33 160/131/33
f 33/228/1 161/133/1 163/138/1
f 36/232/1 164/143/1 162/135/1
f 37/233/2 35/231/2 163/138/2
f 36/232/2 38/62/2 166/148/2
f 37/233/3 165/142/3 167/145/3
f 40/235/3 168/147/3 166/148/3
f 39/234/4 167/145/4 169/150/4
f 40/235/4 42/239/4 170/155/4
f 41/236/5 169/150/5 171/154/5
f 44/238/5 172/160/5 170/155/5
f 45/240/6 43/237/6 171/154/6
f 44/238/6 46/242/6 174/159/6
f 45/240/7 173/158/7 175/162/7
f 48/241/7 176/167/7 174/159/7
f 47/69/8 175/162/8 177/166/8
f 50/244/8 178/171/8 176/167/8
f 51/245/9 49/243/9 177/166/9
f 52/246/9 180/175/9 178/171/9
f 51/245/10 179/170/10 181/174/10
f 54/64/10 182/179/10 180/175/10
f 53/247/11 181/174/11 183/178/11
f 56/249/11 184/183/11 182/179/11
f 55/248/12 183/178/12 185/182/12
f 58/251/12 186/187/12 184/183/12
f 57/250/13 185/182/13 187/186/13
f 60/253/13 188/192/13 186/187/13
f 59/252/14 187/186/14 189/190/14
f 62/255/14 190/191/14 188/192/14
f 61/254/15 189/190/15 191/194/15
f 64/256/15 192/198/15 190/191/15
f 63/70/16 191/194/16 129/71/16
f 2/202/16 132/74/16 192/198/16
