# Blender v2.77 (sub 0) OBJ File: 'pizza.blend'
# www.blender.org
v 1.333333 0.000000 0.000000
v 1.333333 0.250000 0.000000
v -0.666667 0.000000 0.866025
v -0.666667 0.250000 0.866025
v -0.666667 0.000000 -0.866025
v -0.666667 0.250000 -0.866025
v -0.762202 -0.050000 1.000000
v -0.762202 -0.050000 -1.000000
v -0.638459 0.001256 1.000000
v -0.638459 0.001256 -1.000000
v -0.587202 0.125000 1.000000
v -0.587202 0.125000 -1.000000
v -0.638459 0.248744 1.000000
v -0.638459 0.248744 -1.000000
v -0.762202 0.300000 1.000000
v -0.762202 0.300000 -1.000000
v -0.885946 0.248744 1.000000
v -0.885946 0.248744 -1.000000
v -0.937202 0.125000 1.000000
v -0.937202 0.125000 -1.000000
v -0.885946 0.001256 1.000000
v -0.885946 0.001256 -1.000000
vt 0.2969 0.1103
vt 0.0327 0.7202
vt 0.2969 0.1103
vt 0.0327 0.7202
vt 0.5610 0.7202
vt 0.5610 0.7202
vt 0.7019 0.7202
vt 0.9660 0.1103
vt 0.4377 0.1103
vt 0.9145 0.8984
vt 0.0862 0.8472
vt 0.0862 0.8984
vt 0.9145 0.8472
vt 0.0862 0.8259
vt 0.9145 0.8259
vt 0.0862 0.8472
vt 0.9145 0.8472
vt 0.0862 0.8984
vt 0.9145 0.8984
vt 0.0862 0.9497
vt 0.9145 0.9497
vt 0.0862 0.9709
vt 0.9145 0.9709
vt 0.0862 0.9497
vt 0.9145 0.9497
vn 0.3974 0.0000 0.9177
vn 0.0000 1.0000 0.0000
vn 0.3974 0.0000 -0.9177
vn 0.0000 -1.0000 0.0000
vn 0.3827 -0.9239 -0.0000
vn 0.9239 -0.3827 -0.0000
vn 0.9239 0.3827 0.0000
vn 0.3827 0.9239 0.0000
vn -0.3827 0.9239 0.0000
vn -0.9239 0.3827 0.0000
vn 0.0000 0.0000 -1.0000
vn -0.9239 -0.3827 -0.0000
vn -0.3827 -0.9239 -0.0000
vn 0.0000 0.0000 1.0000
s off
f 2/1/1 3/2/1 1/3/1
f 4/4/2 2/1/2 6/5/2
f 6/5/3 1/3/3 5/6/3
f 1/7/4 3/8/4 5/9/4
f 8/10/5 9/11/5 7/12/5
f 10/13/6 11/14/6 9/11/6
f 12/15/7 13/16/7 11/14/7
f 14/17/8 15/18/8 13/16/8
f 16/19/9 17/20/9 15/18/9
f 18/21/10 19/22/10 17/20/10
f 18/21/11 16/19/11 12/15/11
f 20/23/12 21/24/12 19/22/12
f 22/25/13 7/12/13 21/24/13
f 13/16/14 17/20/14 21/24/14
f 2/1/1 4/4/1 3/2/1
f 6/5/3 2/1/3 1/3/3
f 8/10/5 10/13/5 9/11/5
f 10/13/6 12/15/6 11/14/6
f 12/15/7 14/17/7 13/16/7
f 14/17/8 16/19/8 15/18/8
f 16/19/9 18/21/9 17/20/9
f 18/21/10 20/23/10 19/22/10
f 12/15/11 10/13/11 8/10/11
f 8/10/11 22/25/11 12/15/11
f 20/23/11 18/21/11 12/15/11
f 16/19/11 14/17/11 12/15/11
f 12/15/11 22/25/11 20/23/11
f 20/23/12 22/25/12 21/24/12
f 22/25/13 8/10/13 7/12/13
f 21/24/14 7/12/14 9/11/14
f 9/11/14 11/14/14 13/16/14
f 13/16/14 15/18/14 17/20/14
f 17/20/14 19/22/14 21/24/14
f 21/24/14 9/11/14 13/16/14
